OpenSim_Sub03_EMGBaseline_GRF.mot
version=1
nRows=34
nColumns=19
inDegrees=no
endheader
time	lFx	lFy	lFz	lCOPx	lCOPy	lCOPz	rFx	rFy	rFz	rCOPx	rCOPy	rCOPz	lMx	lMy	lMz	rMx	rMy	rMz
18.43000000	-50.09979199	753.88628086	74.67412036	1.08585520	0	-0.61091125	-1.42364738	19.11926120	-2.31395785	0.05672303	0	-0.02344226	0	1.35150029	0	0	-0.12149431	0.00000000
18.44000000	-48.48241660	772.97205773	76.01633238	1.07943723	0	-0.61073652	-3.17040584	11.73403139	-1.77468164	-0.00939035	0	0.00832621	0	1.85595696	0	0	-0.07449160	0.00000000
18.45000000	-46.52020629	787.21335619	76.74598797	1.07302949	0	-0.61059369	-3.81363784	7.23162296	-1.08481746	-0.02253415	0	0.01289887	0	2.24570029	0	0	-0.02805079	-0.00000000
18.46000000	-43.97202595	795.77558153	76.36210225	1.06680875	0	-0.61050298	-3.12397711	4.29585114	-0.49283659	-0.01570158	0	0.00820956	0	2.55148910	0	0	-0.00298319	-0.00000000
18.47000000	-40.87312679	798.76421841	74.63784851	1.06086042	0	-0.61044360	-1.57739420	2.25579779	0.00686358	-0.00672353	0	0.00322084	0	2.89785134	0	0	0.00499109	0.00000000
18.48000000	-37.33511982	797.20147864	71.89769054	1.05505111	0	-0.61040786	-0.41005424	1.25152131	0.39525207	-0.00128295	0	0.00043318	0	3.29741899	0	0	0.00481298	0.00000000
18.49000000	-33.57849382	792.29506471	68.75315193	1.04953438	0	-0.61047113	0.11428769	1.08150516	0.39054245	0.00073820	0	-0.00049997	0	3.66165271	0	0	0.00256631	-0.00000000
18.50000000	-30.01782085	784.24993400	65.77659326	1.04462125	0	-0.61067767	0.24904426	1.27615019	0.26673912	0.00093384	0	-0.00051755	0	3.92437669	0	0	0.00080093	0.00000000
18.51000000	-27.20035077	772.66546226	63.38383580	1.04037101	0	-0.61103086	0.21079085	1.51968882	0.21876066	0.00055864	0	-0.00028565	0	3.99843764	0	0	-0.00003069	0.00000000
18.52000000	-25.20150510	757.68246159	61.58173594	1.03656524	0	-0.61147882	0.11286255	1.62331705	0.17705036	0.00020437	0	-0.00009394	0	3.83150430	0	0	-0.00023598	0.00000000
18.53000000	-23.73014254	740.62307242	60.01561391	1.03312666	0	-0.61197888	0.04475137	1.63456746	0.13851279	0.00001754	0	-0.00000045	0	3.49816241	0	0	-0.00018227	-0.00000000
18.54000000	-22.57625599	723.53995785	58.39939206	1.03002917	0	-0.61249279	0.01736502	1.61745125	0.21480110	-0.00003975	0	0.00002441	0	3.11980507	0	0	-0.00008480	-0.00000000
18.55000000	-21.82650405	708.49172827	56.75804161	1.02723557	0	-0.61301387	-0.00618250	1.57176184	0.29898339	-0.00003669	0	0.00001981	0	2.77882910	0	0	-0.00002034	-0.00000000
18.56000000	-21.44026958	696.82799453	55.29319301	1.02451228	0	-0.61354981	-0.04531754	1.52249025	0.23913061	-0.00001911	0	0.00000954	0	2.54069717	0	0	0.00000596	0.00000000
18.57000000	-21.21522568	688.81465559	54.22991557	1.02170581	0	-0.61413759	-0.10035331	1.45909260	0.15289363	-0.00000574	0	0.00000247	0	2.36657585	0	0	0.00001017	0.00000000
18.58000000	-21.02335273	683.84073287	53.64460772	1.01863823	0	-0.61475376	-0.14184123	1.44713627	0.13637643	0.00000041	0	-0.00000052	0	2.17508304	0	0	0.00000663	0.00000000
18.59000000	-20.92909445	681.29558839	53.52546446	1.01531887	0	-0.61536750	-0.15767842	1.47066231	0.18619209	0.00000184	0	-0.00000107	0	1.93576980	0	0	0.00000267	0.00000000
18.60000000	-21.04150777	680.76012779	53.75576499	1.01196096	0	-0.61597561	-0.15245910	1.45806135	0.25138080	0.00000138	0	-0.00000073	0	1.69200521	0	0	0.00000040	-0.00000000
18.61000000	-21.17886054	681.91826653	54.10865850	1.00857834	0	-0.61655561	-0.13147007	1.42630777	0.24765515	0.00000063	0	-0.00000030	0	1.50685388	0	0	-0.00000038	-0.00000000
18.62000000	-21.08458247	684.72172553	54.45563115	1.00500052	0	-0.61704422	-0.11782881	1.41059380	0.23162801	0.00000014	0	-0.00000005	0	1.35992816	0	0	-0.00000041	0.00000000
18.63000000	-20.65011501	689.30602907	54.76844220	1.00111488	0	-0.61739598	-0.12299471	1.46150496	0.18356509	-0.00000005	0	0.00000004	0	1.21903759	0	0	-0.00000023	0.00000000
18.64000000	-19.94648395	695.76486964	55.10906479	0.99693374	0	-0.61761245	-0.12651605	1.50046031	0.13743382	-0.00000008	0	0.00000004	0	1.09933607	0	0	-0.00000008	0.00000000
18.65000000	-18.89758820	703.82688748	55.41401883	0.99242892	0	-0.61774000	-0.14174343	1.45328779	0.09856776	-0.00000005	0	0.00000002	0	1.02600178	0	0	-0.00000000	-0.00000000
18.66000000	-17.51733557	713.04703699	55.66707088	0.98747028	0	-0.61784772	-0.13427746	1.33795693	0.04497422	-0.00000001	0	0.00000001	0	1.02841707	0	0	0.00000002	-0.00000000
18.67000000	-15.88400699	722.61561078	55.92901901	0.98216506	0	-0.61794952	-0.10684717	1.28043266	0.01043051	0.00000000	0	-0.00000000	0	1.10257568	0	0	0.00000002	-0.00000000
18.68000000	-14.17502179	731.67391594	56.29431008	0.97682179	0	-0.61802002	-0.11221392	1.27972736	-0.03793694	-0.00000001	0	0.00000000	0	1.14063175	0	0	0.00000001	0.00000000
18.69000000	-12.38692106	739.82498022	56.80628650	0.97141476	0	-0.61806705	-0.15360615	1.30124338	-0.06729830	-0.00000004	0	0.00000001	0	1.08158874	0	0	0.00000001	-0.00000000
18.70000000	-10.39291313	746.95986790	57.40965768	0.96578078	0	-0.61812067	-0.16470610	1.24908307	-0.02397863	-0.00000010	0	0.00000003	0	0.97052452	0	0	-0.00000000	-0.00000000
18.71000000	-8.09676254	753.00158848	58.00463353	0.96000071	0	-0.61819552	-0.14022628	1.19965585	0.01253597	-0.00000014	0	0.00000005	0	0.86708107	0	0	-0.00000003	0.00000000
18.72000000	-5.62478048	757.92710656	58.55559952	0.95428870	0	-0.61832362	-0.13165653	1.24686971	-0.00447602	-0.00000004	0	0.00000001	0	0.73550059	0	0	-0.00000008	0.00000000
18.73000000	-3.12595239	761.47968377	58.99717032	0.94846184	0	-0.61845764	-0.14465389	1.25895547	-0.04952516	0.00000040	0	-0.00000014	0	0.58288621	0	0	-0.00000014	0.00000000
18.74000000	-0.57277655	763.57949124	59.40428467	0.94241542	0	-0.61854501	-0.13656201	1.08799982	-0.08296330	0.00000138	0	-0.00000048	0	0.38989099	0	0	-0.00000012	0.00000000
18.75000000	2.10971884	764.69472609	59.85723390	0.93615948	0	-0.61861593	-0.12083200	0.86062470	-0.10218857	0.00000270	0	-0.00000094	0	0.15687354	0	0	0.00000016	-0.00000000
18.76000000	4.88794019	765.59573226	60.41738155	0.92989516	0	-0.61870142	-0.10946693	0.75386402	-0.11393635	0.00000302	0	-0.00000105	0	-0.06968203	0	0	0.00000094	-0.00000000
